# xmcd
# Copyright (C) 1995-1998 Ti Kan
#
# Track frame offsets:
#       150
#       16200
#       34312
#       51800
#
# Disc length: 936 seconds
#
# Revision: 0
# Processed by: cddbd v1.4PL0 Copyright (c) Steve Scherf et al.
# Submitted via: CD-Transfer v1.0
#
DISCID=2a03a604
DTITLE=Lovebugs - Flavour Of The Day
DYEAR=2002
DGENRE=
TTITLE0=Flavour Of The Day (Radio Edit)
TTITLE1=Dear Jealousy
TTITLE2=Hang On To Your Dream
TTITLE3=Flavour Of The Day (Extended Play)
EXTD=
EXTT0=
EXTT1=
EXTT2=
EXTT3=
PLAYORDER=
